<svg width="54" height="30" viewBox="0 0 54 30" fill="none" xmlns="http://www.w3.org/2000/svg">
<g filter="url(#filter0_d_17_79)">
<rect x="4" y="3" width="46" height="22" rx="4" fill="url(#paint0_linear_17_79)"/>
</g>
<path d="M10.1747 18.16H12.0467V20.048H10.1747V18.16ZM17.6676 20.272C16.8356 20.272 16.1102 20.0853 15.4916 19.712C14.8729 19.3387 14.3929 18.8053 14.0516 18.112C13.7209 17.4187 13.5556 16.6187 13.5556 15.712C13.5556 14.8053 13.7209 14.0107 14.0516 13.328C14.3929 12.6453 14.8729 12.1173 15.4916 11.744C16.1102 11.3707 16.8356 11.184 17.6676 11.184C18.2969 11.184 18.9049 11.3547 19.4916 11.696C20.0889 12.0267 20.5529 12.4747 20.8836 13.04L19.6836 13.888C19.4276 13.4933 19.1182 13.1893 18.7556 12.976C18.3929 12.752 17.9982 12.64 17.5716 12.64C17.0809 12.64 16.6542 12.768 16.2916 13.024C15.9289 13.2693 15.6409 13.6267 15.4276 14.096C15.2249 14.5653 15.1236 15.104 15.1236 15.712C15.1236 16.3307 15.2249 16.8747 15.4276 17.344C15.6302 17.8133 15.9129 18.176 16.2756 18.432C16.6489 18.688 17.0756 18.816 17.5556 18.816C17.9822 18.816 18.3822 18.7093 18.7556 18.496C19.1289 18.272 19.4382 17.9627 19.6836 17.568L20.8836 18.416C20.5529 18.9813 20.0889 19.4347 19.4916 19.776C18.9049 20.1067 18.2969 20.272 17.6676 20.272ZM25.9927 20.272C25.1927 20.272 24.4887 20.0853 23.8807 19.712C23.2834 19.3387 22.8194 18.8107 22.4887 18.128C22.1687 17.4453 22.0087 16.6453 22.0087 15.728C22.0087 14.8 22.1687 13.9947 22.4887 13.312C22.8194 12.6293 23.2834 12.1067 23.8807 11.744C24.4887 11.3707 25.1927 11.184 25.9927 11.184C26.7927 11.184 27.4914 11.3707 28.0887 11.744C28.6967 12.1067 29.1607 12.6293 29.4807 13.312C29.8114 13.9947 29.9767 14.8 29.9767 15.728C29.9767 16.6453 29.8114 17.4453 29.4807 18.128C29.1607 18.8107 28.6967 19.3387 28.0887 19.712C27.4914 20.0853 26.7927 20.272 25.9927 20.272ZM25.9927 18.816C26.4834 18.816 26.91 18.6933 27.2727 18.448C27.6354 18.192 27.9127 17.8293 28.1047 17.36C28.3074 16.8907 28.4087 16.3467 28.4087 15.728C28.4087 15.0987 28.3074 14.5493 28.1047 14.08C27.9127 13.6107 27.6354 13.2533 27.2727 13.008C26.91 12.752 26.4834 12.624 25.9927 12.624C25.502 12.624 25.0754 12.752 24.7127 13.008C24.35 13.2533 24.0674 13.6107 23.8647 14.08C23.6727 14.5493 23.5767 15.0987 23.5767 15.728C23.5767 16.3467 23.6727 16.8907 23.8647 17.36C24.0674 17.8293 24.35 18.192 24.7127 18.448C25.0754 18.6933 25.502 18.816 25.9927 18.816ZM31.7997 20.048V11.408H33.3357V12.592H33.4157C33.6824 12.1547 34.029 11.8133 34.4557 11.568C34.8824 11.312 35.325 11.184 35.7837 11.184C36.3277 11.184 36.8024 11.328 37.2077 11.616C37.613 11.904 37.9277 12.3253 38.1517 12.88H38.2317C38.5304 12.3467 38.925 11.9307 39.4157 11.632C39.9064 11.3333 40.4557 11.184 41.0637 11.184C41.9597 11.184 42.6584 11.4773 43.1597 12.064C43.661 12.6507 43.9117 13.472 43.9117 14.528V20.048H42.3757V14.784C42.3757 14.1227 42.221 13.5947 41.9117 13.2C41.6024 12.7947 41.1864 12.592 40.6637 12.592C40.2477 12.592 39.885 12.688 39.5757 12.88C39.277 13.072 39.0424 13.3493 38.8717 13.712C38.7117 14.064 38.6317 14.4747 38.6317 14.944V20.048H37.0797V14.784C37.0797 14.3467 37.0104 13.9627 36.8717 13.632C36.733 13.3013 36.5304 13.0453 36.2637 12.864C36.0077 12.6827 35.7144 12.592 35.3837 12.592C34.9784 12.592 34.621 12.688 34.3117 12.88C34.0024 13.072 33.7624 13.3493 33.5917 13.712C33.421 14.064 33.3357 14.4747 33.3357 14.944V20.048H31.7997Z" fill="white"/>
<defs>
<filter id="filter0_d_17_79" x="0" y="0" width="54" height="30" filterUnits="userSpaceOnUse" color-interpolation-filters="sRGB">
<feFlood flood-opacity="0" result="BackgroundImageFix"/>
<feColorMatrix in="SourceAlpha" type="matrix" values="0 0 0 0 0 0 0 0 0 0 0 0 0 0 0 0 0 0 127 0" result="hardAlpha"/>
<feOffset dy="1"/>
<feGaussianBlur stdDeviation="2"/>
<feComposite in2="hardAlpha" operator="out"/>
<feColorMatrix type="matrix" values="0 0 0 0 0 0 0 0 0 0 0 0 0 0 0 0 0 0 0.25 0"/>
<feBlend mode="normal" in2="BackgroundImageFix" result="effect1_dropShadow_17_79"/>
<feBlend mode="normal" in="SourceGraphic" in2="effect1_dropShadow_17_79" result="shape"/>
</filter>
<linearGradient id="paint0_linear_17_79" x1="27" y1="3" x2="27" y2="25" gradientUnits="userSpaceOnUse">
<stop stop-color="#8BB4F9"/>
<stop offset="1" stop-color="#5388E2"/>
</linearGradient>
</defs>
</svg>
