<svg width="64" height="64" viewBox="0 0 64 64" fill="none" xmlns="http://www.w3.org/2000/svg">
<path fill-rule="evenodd" clip-rule="evenodd" d="M23.2691 33.8537C24.7067 30.1789 26.4886 25.3557 27.0876 23.2886C26.9386 22.8317 26.6909 22.2961 26.3953 21.6572C25.3537 19.4059 23.7184 15.8711 23.7184 9.96744C23.7184 -1.97569 35.3986 0.550741 35.3986 10.6565C35.3986 18.7411 34.4 22.4 33.2 26.6C33.9487 27.7484 35.0392 29.9033 36.297 31.557C37.5549 33.2106 39.9658 35.7677 41.014 36.8395C41.014 36.8395 47.7894 35.6852 54.0419 36.3801C64.3744 37.5285 64.3744 47.6343 55.6143 47.6343C48.6062 47.6343 42.0623 43.1939 39.6663 40.9737C38.2437 41.1268 34.8145 41.6168 32.4785 42.3517C30.1425 43.0867 26.5635 44.6485 25.0661 45.3375C24.7396 45.7976 24.3564 46.377 23.9148 47.0448C21.5268 50.6555 17.4306 56.8492 11.3641 60.7258C4.17566 65.3193 -0.989614 56.3619 3.95187 51.7684C8.84197 47.2227 14.8323 44.9262 18.4392 43.5434L18.5521 43.5001C19.3757 42.0455 21.8316 37.5285 23.2691 33.8537ZM15.2 46.4C12.5486 47.7226 6.81589 51.0214 5.09607 53.6354C2.9463 56.9031 6.17096 59.0037 9.39562 55.0359C11.9753 51.8616 14.3401 47.956 15.2 46.4ZM32 9.00328C32 13.9134 30.2222 18.3803 29.3333 20C28.6222 18.3803 27.2 13.9134 27.2 9.00328C27.2 2.86557 32 2.86557 32 9.00328ZM31.4857 30.8C31.2571 31.7366 30.111 34.5318 29.3333 36.1251C28.219 38.408 27.5429 39.5415 27.2 40.4C27.6571 40.1659 30.1143 39.5571 31.4857 38.9951C32.8571 38.4332 34.8571 37.9805 35.6 37.8244C35.1429 37.2 34.2286 35.7171 33.3714 34.3122C32.9752 33.6627 32.526 32.7929 32.1192 32.0052C31.8887 31.5588 31.6717 31.1388 31.4857 30.8ZM51.8856 43.901C48.4426 43.1956 44.0752 40.5946 42.8 39.4925C43.0701 39.4717 43.3278 39.4514 43.5774 39.4316C45.9791 39.2419 47.6196 39.1122 52.1246 39.272C58.3411 39.4924 56.1892 44.7827 51.8856 43.901Z" fill="#F95C5C"/>
</svg>
