<svg width="64" height="64" viewBox="0 0 64 64" fill="none" xmlns="http://www.w3.org/2000/svg">
<path d="M34 7C29.0555 7 24.222 8.46622 20.1107 11.2133C15.9995 13.9603 12.7952 17.8648 10.903 22.4329C9.01082 27.0011 8.51574 32.0277 9.48037 36.8773C10.445 41.7268 12.826 46.1814 16.3223 49.6777C19.8186 53.174 24.2732 55.555 29.1227 56.5196C33.9723 57.4843 38.9989 56.9892 43.5671 55.097C48.1352 53.2048 52.0397 50.0005 54.7867 45.8893C57.5338 41.778 59 36.9445 59 32H54.3891C54.3891 36.0326 53.1933 39.9746 50.9529 43.3276C48.7125 46.6805 45.5282 49.2938 41.8026 50.837C38.0769 52.3802 33.9774 52.784 30.0223 51.9973C26.0672 51.2106 22.4342 49.2687 19.5828 46.4172C16.7313 43.5658 14.7894 39.9328 14.0027 35.9777C13.216 32.0226 13.6198 27.9231 15.163 24.1974C16.7062 20.4718 19.3195 17.2875 22.6724 15.0471C26.0254 12.8067 29.9674 11.6109 34 11.6109V7Z" fill="#FF5722"/>
<path d="M34 7C37.283 7 40.5339 7.64664 43.5671 8.90301C46.6002 10.1594 49.3562 12.0009 51.6777 14.3223C53.9991 16.6438 55.8406 19.3998 57.097 22.4329C58.3534 25.4661 59 28.717 59 32L34 32V7Z" fill="#FF5722"/>
<rect x="4" y="17" width="30" height="30" rx="4" fill="#EE4611"/>
<path d="M13.2642 39V24.4545H19.0028C20.1061 24.4545 21.0459 24.6652 21.8224 25.0866C22.599 25.5033 23.1908 26.0833 23.598 26.8267C24.0099 27.5653 24.2159 28.4176 24.2159 29.3835C24.2159 30.3494 24.0076 31.2017 23.5909 31.9403C23.1742 32.679 22.5705 33.2543 21.7798 33.6662C20.9938 34.0781 20.0421 34.2841 18.9247 34.2841H15.267V31.8196H18.4276C19.0194 31.8196 19.5071 31.7178 19.8906 31.5142C20.2789 31.3059 20.5677 31.0194 20.7571 30.6548C20.9512 30.2855 21.0483 29.8617 21.0483 29.3835C21.0483 28.9006 20.9512 28.4792 20.7571 28.1193C20.5677 27.7547 20.2789 27.473 19.8906 27.2741C19.5024 27.0705 19.0099 26.9688 18.4134 26.9688H16.3395V39H13.2642Z" fill="white"/>
</svg>
